:FULLY-SPECIFIED
:FORCE-ALL-JOINTS-BE-3DOF
:DEGREES
1835
root 6.36116 13.9641 27.821 -22.054 55.6976 -23.8338
lfemur -52.6178 24.7408 1.9619
ltibia 63.4949 -0 0
lfoot -2.5647 -6.72577 0.305683
ltoes -18.2848 0 0
rfemur 3.261 -6.21273 18.0934
rtibia 49.2571 -0 0
rfoot -26.8606 -29.2551 -0.0520409
rtoes -27.9674 0 0
lowerback 14.0481 4.21524 6.55785
upperback -0.469896 7.17746 4.52492
thorax -8.20299 3.33949 -0.322018
lowerneck -3.67369 10.5904 3.41254
upperneck 7.19703 14.1897 -2.30969
head 3.55907 7.06499 -0.703495
lclavicle -3.42476e-14 -4.98701e-14 0
lhumerus 61.6952 14.7239 107.237
lradius 10.2942 -0 0
lwrist -83.0496 0 0
lhand -33.0464 42.031 -0.0587652
lfingers 7.12502 -0 0
lthumb -6.25824 71.8949 -0.0535195
rclavicle -3.42476e-14 -4.98701e-14 0
rhumerus -70.8672 10.3439 -82.3129
rradius 124.425 -0 0
rwrist -37.8042 180 180
rhand -61.7479 -89.6609 4.29757
rfingers 7.12502 -0 0
rthumb -34.244 -104.013 2.24502
1836
root 6.43034 13.951 27.8257 -21.8786 55.4439 -23.8147
lfemur -52.87 25.2106 1.94976
ltibia 64.2288 -0 0
lfoot -3.13816 -6.91072 0.287104
ltoes -19.0004 0 0
rfemur 3.42896 -6.03474 18.0431
rtibia 49.0083 -0 0
rfoot -26.72 -29.3836 -0.048886
rtoes -28.2006 0 0
lowerback 14.0461 4.29131 6.55207
upperback -0.486599 7.28295 4.56414
thorax -8.221 3.39105 -0.298062
lowerneck -3.57602 10.769 3.57346
upperneck 7.14213 14.4344 -2.47763
head 3.55036 7.18551 -0.774569
lclavicle -3.42476e-14 -4.98701e-14 0
lhumerus 61.8075 14.8362 107.422
lradius 10.2736 -0 0
lwrist -83.4976 0 0
lhand -32.8686 41.9162 -0.0552024
lfingers 7.12502 -0 0
lthumb -6.0867 71.7865 -0.0502748
rclavicle -3.42476e-14 -4.98701e-14 0
rhumerus -71.1495 10.4641 -82.4688
rradius 124.577 -0 0
rwrist -38.9829 180 180
rhand -61.251 -86.7276 4.01767
rfingers 7.12502 -0 0
rthumb -33.7922 -102.3 2.10551
1837
root 6.49953 13.9378 27.8304 -21.7046 55.1902 -23.7971
lfemur -53.1234 25.6803 1.93528
ltibia 64.9628 -0 0
lfoot -3.71156 -7.09547 0.266675
ltoes -19.716 0 0
rfemur 3.59671 -5.8566 17.9934
rtibia 48.7594 -0 0
rfoot -26.5793 -29.512 -0.0454157
rtoes -28.4338 0 0
lowerback 14.044 4.36738 6.54628
upperback -0.503233 7.38844 4.60333
thorax -8.239 3.44262 -0.274121
lowerneck -3.47779 10.9473 3.73479
upperneck 7.08642 14.679 -2.646
head 3.54149 7.30602 -0.84568
lclavicle -3.42476e-14 -4.98701e-14 0
lhumerus 61.9203 14.9481 107.607
lradius 10.253 -0 0
lwrist -83.9457 0 0
lhand -32.6909 41.8014 -0.0512835
lfingers 7.12502 -0 0
lthumb -5.91516 71.6782 -0.0467059
rclavicle -3.42476e-14 -4.98701e-14 0
rhumerus -71.4322 10.5836 -82.6254
rradius 124.729 -0 0
rwrist -40.1616 180 180
rhand -60.7694 -83.7979 3.71279
rfingers 7.12502 -0 0
rthumb -33.3448 -100.588 1.95257
1838
root 6.56872 13.9247 27.835 -21.5317 54.9364 -23.781
lfemur -53.3779 26.15 1.91842
ltibia 65.6967 -0 0
lfoot -4.28488 -7.28001 0.244398
ltoes -20.4317 0 0
rfemur 3.76425 -5.67832 17.9442
rtibia 48.5106 -0 0
rfoot -26.4387 -29.6405 -0.0416302
rtoes -28.667 0 0
lowerback 14.042 4.44344 6.54049
upperback -0.519798 7.49395 4.64249
thorax -8.25697 3.49419 -0.250194
lowerneck -3.37898 11.1254 3.89652
upperneck 7.02991 14.9233 -2.81481
head 3.53248 7.42652 -0.91683
lclavicle -3.42476e-14 -4.98701e-14 0
lhumerus 62.0334 15.0597 107.793
lradius 10.2324 -0 0
lwrist -84.3937 0 0
lhand -32.5132 41.6867 -0.0470086
lfingers 7.12502 -0 0
lthumb -5.74363 71.5699 -0.0428126
rclavicle -3.42476e-14 -4.98701e-14 0
rhumerus -71.7154 10.7023 -82.7826
rradius 124.881 -0 0
rwrist -41.3403 180 180
rhand -60.3041 -80.8718 3.38376
rfingers 7.12502 -0 0
rthumb -32.9023 -98.8781 1.78635
1839
root 6.63791 13.9115 27.8397 -21.3601 54.6827 -23.7663
lfemur -53.6336 26.6197 1.89917
ltibia 66.4307 -0 0
lfoot -4.85813 -7.46431 0.220275
ltoes -21.1473 0 0
rfemur 3.93159 -5.4999 17.8956
rtibia 48.2618 -0 0
rfoot -26.2981 -29.769 -0.0375293
rtoes -28.9002 0 0
lowerback 14.0399 4.51951 6.53469
upperback -0.536295 7.59947 4.68164
thorax -8.27493 3.54577 -0.226283
lowerneck -3.2796 11.3032 4.05867
upperneck 6.97259 15.1676 -2.98406
head 3.5233 7.54701 -0.988019
lclavicle -3.42476e-14 -4.98701e-14 0
lhumerus 62.1471 15.1709 107.979
lradius 10.2118 -0 0
lwrist -84.8418 0 0
lhand -32.3354 41.5719 -0.0423777
lfingers 7.12502 -0 0
lthumb -5.57211 71.4616 -0.0385952
rclavicle -3.42476e-14 -4.98701e-14 0
rhumerus -71.999 10.8202 -82.9405
rradius 125.033 -0 0
rwrist -42.519 180 180
rhand -59.8565 -77.9495 3.03147
rfingers 7.12502 -0 0
rthumb -32.4649 -97.1695 1.607
1840
root 6.7071 13.8984 27.8444 -21.1896 54.4288 -23.7529
lfemur -53.8905 27.0892 1.87747
ltibia 67.1646 -0 0
lfoot -5.4313 -7.64837 0.19431
ltoes -21.8629 0 0
rfemur 4.09873 -5.32134 17.8475
rtibia 48.013 -0 0
rfoot -26.1575 -29.8974 -0.0331132
rtoes -29.1335 0 0
lowerback 14.0378 4.59558 6.52889
upperback -0.552723 7.70499 4.72077
thorax -8.29286 3.59736 -0.202386
lowerneck -3.17965 11.4807 4.22123
upperneck 6.91445 15.4116 -3.15376
head 3.51398 7.66749 -1.05925
lclavicle -3.42476e-14 -4.98701e-14 0
lhumerus 62.2611 15.2818 108.165
lradius 10.1912 -0 0
lwrist -85.2898 0 0
lhand -32.1577 41.4572 -0.0373909
lfingers 7.12502 -0 0
lthumb -5.4006 71.3534 -0.0340536
rclavicle -3.42476e-14 -4.98701e-14 0
rhumerus -72.283 10.9374 -83.0991
rradius 125.185 -0 0
rwrist -43.6978 180 180
rhand -59.4275 -75.0309 2.65687
rfingers 7.12502 -0 0
rthumb -32.0331 -95.4624 1.41471
1841
root 6.77629 13.8852 27.8491 -21.0203 54.175 -23.741
lfemur -54.1487 27.5587 1.85332
ltibia 67.8986 -0 0
lfoot -6.00438 -7.83215 0.166505
ltoes -22.5786 0 0
rfemur 4.26566 -5.14264 17.7999
rtibia 47.7641 -0 0
rfoot -26.0169 -30.0259 -0.028382
rtoes -29.3667 0 0
lowerback 14.0357 4.67164 6.52309
upperback -0.569083 7.81053 4.75987
thorax -8.31078 3.64895 -0.178504
lowerneck -3.07912 11.658 4.38422
upperneck 6.8555 15.6555 -3.32392
head 3.5045 7.78796 -1.13051
lclavicle -3.42476e-14 -4.98701e-14 0
lhumerus 62.3756 15.3923 108.352
lradius 10.1707 -0 0
lwrist -85.7379 0 0
lhand -31.98 41.3424 -0.0320483
lfingers 7.12502 -0 0
lthumb -5.22909 71.2451 -0.0291879
rclavicle -3.42476e-14 -4.98701e-14 0
rhumerus -72.5675 11.0538 -83.2583
rradius 125.337 -0 0
rwrist -44.8765 180 180
rhand -59.0183 -72.1161 2.26095
rfingers 7.12502 -0 0
rthumb -31.6072 -93.757 1.20965
1842
root 6.84548 13.8721 27.8538 -20.8521 53.9212 -23.7304
lfemur -54.4082 28.028 1.82666
ltibia 68.6325 -0 0
lfoot -6.57737 -8.01565 0.136864
ltoes -23.2942 0 0
rfemur 4.43241 -4.9638 17.7529
rtibia 47.5153 -0 0
rfoot -25.8764 -30.1543 -0.0233356
rtoes -29.5999 0 0
lowerback 14.0337 4.74771 6.51728
upperback -0.585374 7.91609 4.79896
thorax -8.32867 3.70055 -0.154637
lowerneck -2.97801 11.8349 4.54762
upperneck 6.79572 15.8993 -3.49454
head 3.49487 7.90841 -1.20182
lclavicle -3.42476e-14 -4.98701e-14 0
lhumerus 62.4905 15.5024 108.539
lradius 10.1501 -0 0
lwrist -86.1859 0 0
lhand -31.8023 41.2277 -0.0263498
lfingers 7.12502 -0 0
lthumb -5.0576 71.1368 -0.0239981
rclavicle -3.42476e-14 -4.98701e-14 0
rhumerus -72.8524 11.1694 -83.4181
rradius 125.489 -0 0
rwrist -46.0552 180 180
rhand -58.6299 -69.2049 1.84477
rfingers 7.12502 -0 0
rthumb -31.1877 -92.0532 0.992013
1843
root 6.91466 13.8589 27.8585 -20.685 53.6673 -23.7211
lfemur -54.6692 28.4973 1.79746
ltibia 69.3665 -0 0
lfoot -7.15026 -8.19884 0.105389
ltoes -24.0098 0 0
rfemur 4.59896 -4.78483 17.7064
rtibia 47.2665 -0 0
rfoot -25.7358 -30.2827 -0.0179742
rtoes -29.8331 0 0
lowerback 14.0316 4.82377 6.51147
upperback -0.601596 8.02165 4.83802
thorax -8.34654 3.75217 -0.130785
lowerneck -2.87632 12.0116 4.71145
upperneck 6.73511 16.1428 -3.66564
head 3.48508 8.02886 -1.27317
lclavicle -3.42476e-14 -4.98701e-14 0
lhumerus 62.6058 15.6122 108.727
lradius 10.1295 -0 0
lwrist -86.634 0 0
lhand -31.6247 41.113 -0.0202957
lfingers 7.12502 -0 0
lthumb -4.88611 71.0286 -0.0184844
rclavicle -3.42476e-14 -4.98701e-14 0
rhumerus -73.1378 11.2842 -83.5786
rradius 125.641 -0 0
rwrist -47.2339 180 180
rhand -58.2632 -66.2972 1.40942
rfingers 7.12502 -0 0
rthumb -30.7749 -90.3512 0.76201
